<?xml version="1.0" standalone="no"?>
<!DOCTYPE svg PUBLIC "-//W3C//DTD SVG 20010904//EN"
 "http://www.w3.org/TR/2001/REC-SVG-20010904/DTD/svg10.dtd">
<svg version="1.0" xmlns="http://www.w3.org/2000/svg"
 width="1920.000000pt" height="1920.000000pt" viewBox="0 0 1920.000000 1920.000000"
 preserveAspectRatio="xMidYMid meet">
<metadata>
Created by potrace 1.16, written by Peter Selinger 2001-2019
</metadata>
<g transform="translate(0.000000,1920.000000) scale(0.480000,-0.480000)"
fill="#000000" stroke="none">
<path d="M0 2000 l0 -860 2000 0 2000 0 0 860 0 860 -2000 0 -2000 0 0 -860z
m1100 708 c5 -28 141 -178 161 -178 5 0 7 -4 4 -10 -3 -5 0 -10 7 -10 8 0 30
-17 49 -37 39 -42 79 -76 79 -68 0 3 18 -7 40 -21 22 -15 40 -31 40 -37 0 -6
3 -8 6 -4 3 3 28 -9 55 -28 67 -46 221 -104 297 -111 34 -4 62 -10 62 -13 0
-7 163 -8 170 -1 3 3 42 11 87 17 45 7 90 16 100 22 10 5 59 29 108 52 50 24
92 46 95 50 3 4 45 34 94 67 113 76 311 269 319 312 6 27 10 30 42 30 33 0 35
-2 35 -31 0 -22 15 -52 50 -100 28 -38 47 -69 43 -69 -4 0 2 -7 13 -15 10 -8
15 -15 9 -15 -5 0 1 -7 13 -16 12 -8 22 -19 22 -24 0 -10 170 -180 180 -180 3
0 17 -12 31 -28 15 -15 44 -36 65 -47 22 -11 41 -23 42 -28 2 -4 8 -5 13 -1 5
3 9 0 9 -6 0 -6 5 -8 10 -5 5 3 10 2 10 -2 0 -5 10 -9 22 -10 11 -1 25 -8 29
-15 5 -7 9 -9 9 -5 0 5 6 5 13 0 6 -4 17 -8 22 -9 6 -1 42 -10 80 -19 39 -10
98 -17 133 -16 60 1 62 0 62 -24 l0 -25 -440 0 -440 0 0 -101 0 -100 -37 3
-38 3 -3 97 -3 98 -887 2 -887 3 0 -100 0 -100 -43 -3 -43 -3 3 103 3 103
-437 -3 -438 -2 0 24 c0 24 3 25 58 25 31 0 67 2 79 5 161 36 324 111 407 187
31 28 56 49 56 46 0 -3 35 32 78 78 104 112 192 241 192 282 0 35 11 43 55 40
24 -2 31 -7 35 -29z m630 -953 c40 -21 74 -88 65 -129 -7 -32 -7 -54 -3 -130
3 -53 -21 -92 -73 -119 -28 -14 -56 -17 -164 -15 l-130 3 -3 203 -2 202 140 0
c107 0 148 -4 170 -15z m408 -5 c53 -32 78 -119 51 -173 -6 -12 -23 -34 -37
-49 l-26 -28 43 0 42 0 -3 -67 -3 -68 -34 -3 c-65 -6 -102 7 -157 60 l-54 51
0 -50 c0 -58 -7 -63 -75 -63 -79 0 -75 -11 -75 211 l0 199 148 0 c130 0 151
-2 180 -20z m226 -172 c-3 -106 -7 -199 -10 -206 -3 -9 -21 -12 -61 -10 l-58
3 -3 203 -2 202 70 0 70 0 -6 -192z m244 -10 c-3 -196 -4 -204 -27 -239 -33
-48 -80 -79 -129 -86 l-39 -5 -12 48 c-7 27 -14 57 -17 67 -4 13 0 17 19 17
14 0 35 9 48 19 24 19 24 21 22 200 l-3 181 71 0 70 0 -3 -202z"/>
<path d="M1100 2378 l0 -278 30 0 30 0 0 243 -1 242 -29 35 -29 35 -1 -277z"/>
<path d="M2843 2620 c-22 -27 -23 -34 -23 -274 l0 -246 25 0 25 0 0 275 c0
151 -1 275 -2 274 -2 0 -13 -13 -25 -29z"/>
<path d="M983 2575 c-22 -33 -23 -44 -23 -255 l0 -220 25 0 25 0 0 255 c0 140
-1 255 -2 255 -2 0 -13 -16 -25 -35z"/>
<path d="M2960 2357 l0 -257 25 0 25 0 0 221 c0 218 0 220 -25 257 l-25 37 0
-258z"/>
<path d="M2772 2547 c-21 -22 -22 -31 -22 -235 l0 -212 25 0 25 0 0 235 c0
129 -1 235 -3 235 -2 0 -13 -10 -25 -23z"/>
<path d="M1180 2332 l0 -232 25 0 25 0 0 208 0 209 -25 23 -25 23 0 -231z"/>
<path d="M911 2484 c-19 -25 -21 -40 -21 -205 l0 -179 25 0 25 0 0 205 c0 113
-2 205 -4 205 -3 0 -14 -12 -25 -26z"/>
<path d="M2703 2483 c-22 -15 -23 -20 -23 -199 l0 -184 25 0 25 0 0 200 c0
110 -1 200 -2 199 -2 0 -13 -7 -25 -16z"/>
<path d="M3040 2301 l0 -201 25 0 25 0 0 171 c0 168 0 172 -25 201 l-25 30 0
-201z"/>
<path d="M1250 2296 l0 -196 25 0 25 0 -2 181 c-3 176 -4 182 -25 197 l-23 14
0 -196z"/>
<path d="M1320 2272 l0 -172 25 0 25 0 0 148 c0 145 -1 149 -25 172 l-25 23 0
-171z"/>
<path d="M2632 2424 c-21 -15 -22 -21 -22 -170 l0 -154 25 0 25 0 0 170 c0 94
-1 170 -3 170 -1 0 -13 -7 -25 -16z"/>
<path d="M842 2400 c-20 -27 -22 -41 -22 -165 l0 -135 25 0 25 0 0 165 c0 91
-1 165 -3 165 -2 0 -13 -13 -25 -30z"/>
<path d="M3100 2262 l0 -162 30 0 30 0 0 133 0 133 -30 29 -30 29 0 -162z"/>
</g>
</svg>
