<svg version="1.0" xmlns="http://www.w3.org/2000/svg" width="118.70305676855895" height="51" viewBox="0 0 400.000000 172.000000" preserveAspectRatio="xMidYMid meet">

<g transform="translate(0.000000,172.000000) scale(0.100000,-0.100000)" fill="#000000" stroke="none">
<path d="M0 860 l0 -860 2000 0 2000 0 0 860 0 860 -2000 0 -2000 0 0 -860z
m1100 708 c5 -28 141 -178 161 -178 5 0 7 -4 4 -10 -3 -5 0 -10 7 -10 8 0 30
-17 49 -37 39 -42 79 -76 79 -68 0 3 18 -7 40 -21 22 -15 40 -31 40 -37 0 -6
3 -8 6 -4 3 3 28 -9 55 -28 67 -46 221 -104 297 -111 34 -4 62 -10 62 -13 0
-7 163 -8 170 -1 3 3 42 11 87 17 45 7 90 16 100 22 10 5 59 29 108 52 50 24
92 46 95 50 3 4 45 34 94 67 113 76 311 269 319 312 6 27 10 30 42 30 33 0 35
-2 35 -31 0 -22 15 -52 50 -100 28 -38 47 -69 43 -69 -4 0 2 -7 13 -15 10 -8
15 -15 9 -15 -5 0 1 -7 13 -16 12 -8 22 -19 22 -24 0 -10 170 -180 180 -180 3
0 17 -12 31 -28 15 -15 44 -36 65 -47 22 -11 41 -23 42 -28 2 -4 8 -5 13 -1 5
3 9 0 9 -6 0 -6 5 -8 10 -5 5 3 10 2 10 -2 0 -5 10 -9 22 -10 11 -1 25 -8 29
-15 5 -7 9 -9 9 -5 0 5 6 5 13 0 6 -4 17 -8 22 -9 6 -1 42 -10 80 -19 39 -10
98 -17 133 -16 60 1 62 0 62 -24 l0 -25 -440 0 -440 0 0 -101 0 -100 -37 3
-38 3 -3 97 -3 98 -887 2 -887 3 0 -100 0 -100 -43 -3 -43 -3 3 103 3 103
-437 -3 -438 -2 0 24 c0 24 3 25 58 25 31 0 67 2 79 5 161 36 324 111 407 187
31 28 56 49 56 46 0 -3 35 32 78 78 104 112 192 241 192 282 0 35 11 43 55 40
24 -2 31 -7 35 -29z m630 -953 c40 -21 74 -88 65 -129 -7 -32 -7 -54 -3 -130
3 -53 -21 -92 -73 -119 -28 -14 -56 -17 -164 -15 l-130 3 -3 203 -2 202 140 0
c107 0 148 -4 170 -15z m408 -5 c53 -32 78 -119 51 -173 -6 -12 -23 -34 -37
-49 l-26 -28 43 0 42 0 -3 -68 -3 -67 -34 -3 c-65 -6 -102 7 -157 60 l-54 51
0 -50 c0 -58 -7 -63 -75 -63 -79 0 -75 -11 -75 211 l0 199 148 0 c130 0 151
-2 180 -20z m226 -172 c-3 -106 -7 -199 -10 -206 -3 -9 -21 -12 -61 -10 l-58
3 -3 203 -2 202 70 0 70 0 -6 -192z m244 -10 c-3 -196 -4 -204 -27 -239 -33
-48 -80 -79 -129 -86 l-39 -5 -12 48 c-7 27 -14 57 -17 67 -4 13 0 17 19 17
14 0 35 9 48 19 24 19 24 21 22 200 l-3 181 71 0 70 0 -3 -202z"></path>
<path d="M1100 1238 l0 -278 30 0 30 0 0 243 -1 242 -29 35 -29 35 -1 -277z"></path>
<path d="M2843 1480 c-22 -27 -23 -34 -23 -274 l0 -246 25 0 25 0 0 275 c0
151 -1 275 -2 274 -2 0 -13 -13 -25 -29z"></path>
<path d="M983 1435 c-22 -33 -23 -44 -23 -255 l0 -220 25 0 25 0 0 255 c0 140
-1 255 -2 255 -2 0 -13 -16 -25 -35z"></path>
<path d="M2960 1217 l0 -257 25 0 25 0 0 221 c0 218 0 220 -25 257 l-25 37 0
-258z"></path>
<path d="M2772 1407 c-21 -22 -22 -31 -22 -235 l0 -212 25 0 25 0 0 235 c0
129 -1 235 -3 235 -2 0 -13 -10 -25 -23z"></path>
<path d="M1180 1192 l0 -232 25 0 25 0 0 208 0 209 -25 23 -25 23 0 -231z"></path>
<path d="M911 1344 c-19 -25 -21 -40 -21 -205 l0 -179 25 0 25 0 0 205 c0 113
-2 205 -4 205 -3 0 -14 -12 -25 -26z"></path>
<path d="M2703 1343 c-22 -15 -23 -20 -23 -199 l0 -184 25 0 25 0 0 200 c0
110 -1 200 -2 199 -2 0 -13 -7 -25 -16z"></path>
<path d="M3040 1161 l0 -201 25 0 25 0 0 171 c0 168 0 172 -25 201 l-25 30 0
-201z"></path>
<path d="M1250 1156 l0 -196 25 0 25 0 -2 181 c-3 176 -4 182 -25 197 l-23 14
0 -196z"></path>
<path d="M1320 1132 l0 -172 25 0 25 0 0 148 c0 145 -1 149 -25 172 l-25 23 0
-171z"></path>
<path d="M2632 1284 c-21 -15 -22 -21 -22 -170 l0 -154 25 0 25 0 0 170 c0 94
-1 170 -3 170 -1 0 -13 -7 -25 -16z"></path>
<path d="M842 1260 c-20 -27 -22 -41 -22 -165 l0 -135 25 0 25 0 0 165 c0 91
-1 165 -3 165 -2 0 -13 -13 -25 -30z"></path>
<path d="M3100 1122 l0 -162 30 0 30 0 0 133 0 133 -30 29 -30 29 0 -162z"></path>
<path d="M1390 1100 l0 -140 25 0 25 0 0 124 c0 121 -1 124 -25 140 l-25 16 0
-140z"></path>
<path d="M2558 1226 c-16 -11 -18 -31 -18 -140 l0 -126 25 0 25 0 0 140 c0 77
-3 140 -7 140 -5 0 -16 -7 -25 -14z"></path>
<path d="M772 1187 c-20 -21 -22 -34 -22 -125 l0 -102 25 0 25 0 0 125 c0 69
-1 125 -3 125 -2 0 -13 -10 -25 -23z"></path>
<path d="M3180 1082 l0 -122 25 0 c25 0 25 0 25 98 0 92 -2 100 -25 122 l-25
23 0 -121z"></path>
<path d="M1460 1075 l0 -115 28 0 27 0 -2 95 c-2 101 -4 109 -34 125 -18 10
-19 7 -19 -105z"></path>
<path d="M2482 1174 c-20 -14 -22 -23 -22 -115 0 -99 0 -99 25 -99 l25 0 0
115 c0 63 -1 115 -3 115 -1 0 -13 -7 -25 -16z"></path>
<path d="M703 1131 c-20 -17 -23 -29 -23 -95 0 -74 1 -76 25 -76 25 0 25 0 25
95 0 52 -1 95 -2 95 -2 -1 -13 -9 -25 -19z"></path>
<path d="M2413 1133 c-21 -14 -23 -24 -23 -94 l0 -79 30 0 30 0 0 95 c0 52 -3
95 -7 94 -5 0 -18 -7 -30 -16z"></path>
<path d="M1530 1050 l0 -90 30 0 30 0 0 80 c0 68 -3 81 -19 90 -37 20 -41 13
-41 -80z"></path>
<path d="M3250 1046 c0 -85 0 -86 25 -86 26 0 26 1 23 71 -3 61 -6 74 -25 87
l-23 14 0 -86z"></path>
<path d="M1600 1035 l0 -75 30 0 30 0 0 63 c0 59 -2 65 -25 75 -14 7 -28 12
-30 12 -3 0 -5 -34 -5 -75z"></path>
<path d="M2338 1099 c-14 -8 -18 -24 -18 -74 0 -63 1 -65 25 -65 24 0 25 2 25
75 0 77 -2 82 -32 64z"></path>
<path d="M633 1083 c-19 -13 -23 -25 -23 -69 0 -51 1 -54 25 -54 24 0 25 2 25
70 0 39 -1 70 -2 69 -2 0 -13 -7 -25 -16z"></path>
<path d="M1680 1019 c0 -56 1 -59 25 -59 24 0 25 3 25 54 0 49 -2 54 -25 58
-24 5 -25 4 -25 -53z"></path>
<path d="M2268 1073 c-14 -4 -18 -15 -18 -59 0 -51 1 -54 25 -54 24 0 25 3 25
60 0 33 -3 59 -7 59 -5 -1 -16 -3 -25 -6z"></path>
<path d="M3320 1020 c0 -57 1 -60 25 -60 23 0 25 4 25 46 0 33 -5 51 -17 60
-29 22 -33 17 -33 -46z"></path>
<path d="M2203 1053 c-20 -4 -23 -11 -23 -49 0 -40 2 -44 25 -44 23 0 25 3 25
50 0 28 -1 49 -2 49 -2 -1 -13 -4 -25 -6z"></path>
<path d="M563 1038 c-17 -8 -23 -20 -23 -45 0 -29 3 -33 25 -33 23 0 25 4 25
45 0 25 -1 45 -2 44 -2 0 -13 -5 -25 -11z"></path>
<path d="M1750 1006 c0 -43 2 -46 26 -46 23 0 25 3 22 43 -2 35 -7 43 -25 45
-21 3 -23 -1 -23 -42z"></path>
<path d="M1820 999 c0 -35 3 -39 25 -39 22 0 25 4 25 34 0 28 -4 34 -25 38
-23 5 -25 2 -25 -33z"></path>
<path d="M2128 1033 c-13 -3 -18 -15 -18 -39 0 -30 3 -34 25 -34 23 0 25 4 25
40 0 22 -3 39 -7 39 -5 -1 -16 -3 -25 -6z"></path>
<path d="M3390 1001 c0 -37 2 -41 26 -41 22 0 25 4 22 26 -2 15 -13 33 -25 42
-23 14 -23 14 -23 -27z"></path>
<path d="M1890 996 c0 -33 2 -36 30 -36 27 0 30 3 30 30 0 19 -5 30 -14 30 -8
0 -21 3 -30 6 -13 5 -16 -1 -16 -30z"></path>
<path d="M2048 1023 c-12 -3 -18 -14 -18 -34 0 -26 4 -29 30 -29 28 0 30 3 30
35 0 35 -5 38 -42 28z"></path>
<path d="M1960 990 c0 -27 3 -30 30 -30 27 0 30 3 30 30 0 27 -3 30 -30 30
-27 0 -30 -3 -30 -30z"></path>
<path d="M483 998 c-31 -15 -29 -38 2 -38 20 0 25 5 25 25 0 14 -1 25 -2 24
-2 0 -13 -5 -25 -11z"></path>
<path d="M3460 980 c0 -16 7 -20 30 -20 37 0 39 13 5 28 -34 16 -35 15 -35 -8z"></path>
<path d="M415 970 c-18 -8 -17 -9 8 -9 15 -1 27 4 27 9 0 12 -8 12 -35 0z"></path>
<path d="M1550 489 c0 -18 5 -20 52 -17 41 2 54 7 56 21 3 14 -5 17 -52 17
-50 0 -56 -2 -56 -21z"></path>
<path d="M1550 365 c0 -25 2 -26 53 -23 44 3 52 6 52 23 0 17 -8 20 -52 23
-51 3 -53 2 -53 -23z"></path>
<path d="M1960 490 c0 -19 5 -21 48 -18 34 2 47 7 47 18 0 11 -13 16 -47 18
-43 3 -48 1 -48 -18z"></path>
</g>
</svg>